<?xml version="1.0" encoding="UTF-8" standalone="no"?>
<!-- Created with Inkscape (http://www.inkscape.org/) -->

<svg
   width="99.926308mm"
   height="17.109802mm"
   viewBox="0 0 99.926306 17.109802"
   version="1.1"
   id="svg1"
   inkscape:version="1.3.1 (9b9bdc1480, 2023-11-25, custom)"
   sodipodi:docname="logo_onap_2024"
   xmlns:inkscape="http://www.inkscape.org/namespaces/inkscape"
   xmlns:sodipodi="http://sodipodi.sourceforge.net/DTD/sodipodi-0.dtd"
   xmlns:xlink="http://www.w3.org/1999/xlink"
   xmlns="http://www.w3.org/2000/svg"
   xmlns:svg="http://www.w3.org/2000/svg">
  <sodipodi:namedview
     id="namedview1"
     pagecolor="#ffffff"
     bordercolor="#666666"
     borderopacity="1.0"
     inkscape:showpageshadow="2"
     inkscape:pageopacity="0.0"
     inkscape:pagecheckerboard="0"
     inkscape:deskcolor="#d1d1d1"
     inkscape:document-units="mm"
     showguides="true"
     inkscape:zoom="4.7773753"
     inkscape:cx="192.15572"
     inkscape:cy="47.096991"
     inkscape:window-width="3768"
     inkscape:window-height="2096"
     inkscape:window-x="72"
     inkscape:window-y="27"
     inkscape:window-maximized="1"
     inkscape:current-layer="g1241">
    <sodipodi:guide
       position="31.880777,4.8912692"
       orientation="0,-1"
       id="guide1"
       inkscape:locked="false" />
  </sodipodi:namedview>
  <defs
     id="defs1" />
  <g
     inkscape:label="Layer 1"
     inkscape:groupmode="layer"
     id="layer1"
     transform="translate(-57.786329,-137.58333)">
    <a
       id="a4602"
       inkscape:label="onaplogo.link"
       onmouseover="style.opacity = 0.6;"
       onmouseout="style.opacity = 1.0;"
       xlink:href="https://docs.onap.org/en/newdelhi/platform/overview/index.html"
       xlink:title="The Open Network Automation Platform (ONAP) is a comprehensive platform for orchestration, management, and automation of network and edge computing services for network operators, cloud providers, and enterprises. The open source project ONAP is hosted by the Linux Foundation."
       style="display:inline"
       transform="translate(46.122917,131.58333)">
      <g
         id="g1241"
         transform="matrix(0.10712373,0,0,0.10712373,5.2329939,4.7423663)"
         style="display:inline"
         inkscape:label="onaplogo">
        <g
           id="g1365"
           inkscape:label="logotext">
          <path
             class="st127"
             d="m 884.4,124.83 v 46.62 H 851.73 V 13.39 h 93.09 c 17.32,0 29.65,4.26 37,12.76 7.35,8.51 11.02,22.71 11.02,42.61 0,20.06 -3.67,34.41 -11.02,43.07 -7.35,8.66 -19.55,12.99 -36.61,12.99 H 884.4 Z m 0,-31.38 h 54.52 c 8,0 13.55,-1.87 16.63,-5.6 3.08,-3.73 4.63,-10.09 4.63,-19.08 0,-8.38 -1.38,-14.32 -4.13,-17.82 -3.15,-4.11 -8.86,-6.17 -17.12,-6.17 H 884.4 Z"
             id="path1149"
             style="display:inline;fill:#313032"
             inkscape:label="p" />
          <path
             class="st127"
             d="M 687,171.45 H 648.82 L 721.25,13.39 h 48.42 l 71.84,158.06 h -38.38 l -17.52,-39.8 h -80.89 z m 30.9,-69.59 h 54.52 l -25.98,-58.9 h -1.57 z"
             id="path1147"
             style="display:inline;fill:#313032"
             inkscape:label="a" />
          <path
             class="st127"
             d="m 459.48,13.39 h 54.91 l 83.25,126.68 h 4.53 V 13.39 h 32.67 V 171.45 H 578.75 L 496.68,44.78 h -4.53 v 126.68 h -32.67 z"
             id="path1145"
             style="display:inline;fill:#313032"
             inkscape:label="n" />
          <path
             class="st126"
             d="m 437.05,117.55 c 0,20.01 -3.51,34 -10.53,41.96 -7.02,7.96 -19.98,11.94 -38.87,11.94 h -60.03 c -18.24,0 -31.19,-4.13 -38.87,-12.39 -7.67,-8.26 -11.51,-22.1 -11.51,-41.5 V 67.97 c 0,-21.38 3.67,-36.08 11.02,-44.12 7.35,-8.03 20.47,-12.05 39.36,-12.05 h 60.03 c 17.71,0 30.18,3.79 37.39,11.37 8,8.34 12.01,23.28 12.01,44.8 z m -127.14,-3.86 c 0,10.31 1.77,17.28 5.31,20.92 3.54,3.64 10.3,5.46 20.27,5.46 h 43.3 c 10.5,0 17.38,-1.74 20.67,-5.23 3.28,-3.49 4.92,-10.61 4.92,-21.38 V 71.39 c 0,-11.22 -1.84,-18.72 -5.51,-22.51 -3.68,-3.79 -10.56,-5.69 -20.67,-5.69 h -42.12 c -10.23,0 -17.16,1.93 -20.76,5.8 -3.61,3.87 -5.41,11.41 -5.41,22.63 z"
             id="path1143"
             style="display:inline;fill:#007da5"
             inkscape:label="o" />
        </g>
        <g
           id="g1359"
           inkscape:label="logografics"
           transform="matrix(0.77766957,0,0,0.77766957,54.459839,2.6101593)"
           style="stroke-width:1.28589">
          <polygon
             class="st127"
             points="114.85,217.11 7.16,149.91 7.16,217.11 "
             id="polygon1151"
             style="display:inline;fill:#313032;stroke-width:1.28589" />
          <polygon
             class="st128"
             points="244.95,217.11 244.95,149.68 136.86,217.11 "
             id="polygon1153"
             style="fill:#24272a;stroke-width:1.28589" />
          <polygon
             class="st128"
             points="7.16,11.74 7.16,77.45 112.49,11.74 "
             id="polygon1155"
             style="fill:#24272a;stroke-width:1.28589" />
          <polygon
             class="st128"
             points="244.95,11.74 141.76,11.74 244.95,76.13 "
             id="polygon1157"
             style="fill:#24272a;stroke-width:1.28589" />
          <polygon
             class="st86"
             points="177.28,112.08 129,81.95 79.61,112.78 127.88,142.91 "
             id="polygon1159"
             style="fill:none;stroke-width:1.28589" />
          <polygon
             class="st129"
             points="32.97,83.67 79.61,112.78 129,81.95 82.34,52.84 "
             id="polygon1161"
             style="fill:#00afaa;stroke-width:1.28589" />
          <polygon
             class="st129"
             points="175.64,52.84 129,81.95 177.28,112.08 223.92,82.97 "
             id="polygon1163"
             style="fill:#00afaa;stroke-width:1.28589" />
          <polygon
             class="st130"
             points="82.34,52.84 129,81.95 175.64,52.84 129,23.73 "
             id="polygon1165"
             style="fill:#66c9ba;stroke-width:1.28589" />
          <polygon
             class="st131"
             points="81.24,172.02 127.88,142.91 79.61,112.78 32.97,141.9 "
             id="polygon1167"
             style="fill:#0069a7;stroke-width:1.28589" />
          <polygon
             class="st126"
             points="29.62,85.74 29.62,139.81 32.97,141.9 79.61,112.78 32.97,83.67 "
             id="polygon1169"
             style="fill:#007da5;stroke-width:1.28589" />
          <polygon
             class="st131"
             points="174.21,171.83 173.7,172.56 223.92,141.2 177.28,112.08 127.88,142.91 "
             id="polygon1171"
             style="fill:#0069a7;stroke-width:1.28589" />
          <polygon
             class="st126"
             points="223.92,82.97 177.28,112.08 223.92,141.2 226.85,139.38 226.85,84.8 "
             id="polygon1173"
             style="fill:#007da5;stroke-width:1.28589" />
          <polygon
             class="st132"
             points="81.24,172.02 127.88,201.14 173.7,172.56 174.21,171.83 127.88,142.91 "
             id="polygon1175"
             style="fill:#002f87;stroke-width:1.28589" />
          <polygon
             class="st126"
             points="177.28,112.08 127.88,142.91 79.61,112.78 129,81.95 "
             id="polygon1177"
             style="display:inline;fill:#007da5;stroke-width:1.28589" />
        </g>
        <g
           id="g1239"
           style="display:inline"
           inkscape:label="opennetworkautomationplatform" />
      </g>
    </a>
  </g>
</svg>
