<?xml version="1.0" encoding="UTF-8" standalone="no"?>
<!-- Created with Inkscape (http://www.inkscape.org/) -->

<svg
   width="105.58972mm"
   height="22mm"
   viewBox="0 0 105.58972 22"
   version="1.1"
   id="svg1"
   inkscape:version="1.3.1 (9b9bdc1480, 2023-11-25, custom)"
   sodipodi:docname="logo_onap_2017.svg"
   xmlns:inkscape="http://www.inkscape.org/namespaces/inkscape"
   xmlns:sodipodi="http://sodipodi.sourceforge.net/DTD/sodipodi-0.dtd"
   xmlns:xlink="http://www.w3.org/1999/xlink"
   xmlns="http://www.w3.org/2000/svg"
   xmlns:svg="http://www.w3.org/2000/svg">
  <sodipodi:namedview
     id="namedview1"
     pagecolor="#ffffff"
     bordercolor="#666666"
     borderopacity="1.0"
     inkscape:showpageshadow="2"
     inkscape:pageopacity="0.0"
     inkscape:pagecheckerboard="0"
     inkscape:deskcolor="#d1d1d1"
     inkscape:document-units="mm"
     inkscape:zoom="1.6890572"
     inkscape:cx="376.24539"
     inkscape:cy="469.49267"
     inkscape:window-width="3768"
     inkscape:window-height="2096"
     inkscape:window-x="72"
     inkscape:window-y="27"
     inkscape:window-maximized="1"
     inkscape:current-layer="layer1" />
  <defs
     id="defs1" />
  <g
     inkscape:label="Layer 1"
     inkscape:groupmode="layer"
     id="layer1"
     transform="translate(-5.5562499,-24.341667)">
    <a
       id="a4602"
       inkscape:label="onaplogo.link"
       onmouseover="style.opacity = 0.6;"
       onmouseout="style.opacity = 1.0;"
       xlink:href="https://docs.onap.org/en/newdelhi/platform/overview/index.html"
       xlink:title="The Open Network Automation Platform (ONAP) is a comprehensive platform for orchestration, management, and automation of network and edge computing services for network operators, cloud providers, and enterprises. The open source project ONAP is hosted by the Linux Foundation."
       style="display:inline"
       transform="translate(-0.4437499,18.341668)">
      <g
         id="g1241"
         transform="matrix(0.10712373,0,0,0.10712373,5.2329939,4.7423663)"
         style="display:inline"
         inkscape:label="onaplogo">
        <g
           id="g1365"
           inkscape:label="logotext">
          <path
             class="st127"
             d="m 884.4,124.83 v 46.62 H 851.73 V 13.39 h 93.09 c 17.32,0 29.65,4.26 37,12.76 7.35,8.51 11.02,22.71 11.02,42.61 0,20.06 -3.67,34.41 -11.02,43.07 -7.35,8.66 -19.55,12.99 -36.61,12.99 H 884.4 Z m 0,-31.38 h 54.52 c 8,0 13.55,-1.87 16.63,-5.6 3.08,-3.73 4.63,-10.09 4.63,-19.08 0,-8.38 -1.38,-14.32 -4.13,-17.82 -3.15,-4.11 -8.86,-6.17 -17.12,-6.17 H 884.4 Z"
             id="path1149"
             style="display:inline;fill:#313032"
             inkscape:label="p" />
          <path
             class="st127"
             d="M 687,171.45 H 648.82 L 721.25,13.39 h 48.42 l 71.84,158.06 h -38.38 l -17.52,-39.8 h -80.89 z m 30.9,-69.59 h 54.52 l -25.98,-58.9 h -1.57 z"
             id="path1147"
             style="display:inline;fill:#313032"
             inkscape:label="a" />
          <path
             class="st127"
             d="m 459.48,13.39 h 54.91 l 83.25,126.68 h 4.53 V 13.39 h 32.67 V 171.45 H 578.75 L 496.68,44.78 h -4.53 v 126.68 h -32.67 z"
             id="path1145"
             style="display:inline;fill:#313032"
             inkscape:label="n" />
          <path
             class="st126"
             d="m 437.05,117.55 c 0,20.01 -3.51,34 -10.53,41.96 -7.02,7.96 -19.98,11.94 -38.87,11.94 h -60.03 c -18.24,0 -31.19,-4.13 -38.87,-12.39 -7.67,-8.26 -11.51,-22.1 -11.51,-41.5 V 67.97 c 0,-21.38 3.67,-36.08 11.02,-44.12 7.35,-8.03 20.47,-12.05 39.36,-12.05 h 60.03 c 17.71,0 30.18,3.79 37.39,11.37 8,8.34 12.01,23.28 12.01,44.8 z m -127.14,-3.86 c 0,10.31 1.77,17.28 5.31,20.92 3.54,3.64 10.3,5.46 20.27,5.46 h 43.3 c 10.5,0 17.38,-1.74 20.67,-5.23 3.28,-3.49 4.92,-10.61 4.92,-21.38 V 71.39 c 0,-11.22 -1.84,-18.72 -5.51,-22.51 -3.68,-3.79 -10.56,-5.69 -20.67,-5.69 h -42.12 c -10.23,0 -17.16,1.93 -20.76,5.8 -3.61,3.87 -5.41,11.41 -5.41,22.63 z"
             id="path1143"
             style="display:inline;fill:#007da5"
             inkscape:label="o" />
        </g>
        <g
           id="g1359"
           inkscape:label="logografics">
          <polygon
             class="st127"
             points="7.16,149.91 7.16,217.11 114.85,217.11 "
             id="polygon1151"
             style="display:inline;fill:#313032" />
          <polygon
             class="st128"
             points="244.95,149.68 136.86,217.11 244.95,217.11 "
             id="polygon1153"
             style="fill:#24272a" />
          <polygon
             class="st128"
             points="7.16,77.45 112.49,11.74 7.16,11.74 "
             id="polygon1155"
             style="fill:#24272a" />
          <polygon
             class="st128"
             points="141.76,11.74 244.95,76.13 244.95,11.74 "
             id="polygon1157"
             style="fill:#24272a" />
          <polygon
             class="st86"
             points="127.88,142.91 177.28,112.08 129,81.95 79.61,112.78 "
             id="polygon1159"
             style="fill:none" />
          <polygon
             class="st129"
             points="82.34,52.84 32.97,83.67 79.61,112.78 129,81.95 "
             id="polygon1161"
             style="fill:#00afaa" />
          <polygon
             class="st129"
             points="223.92,82.97 175.64,52.84 129,81.95 177.28,112.08 "
             id="polygon1163"
             style="fill:#00afaa" />
          <polygon
             class="st130"
             points="129,23.73 82.34,52.84 129,81.95 175.64,52.84 "
             id="polygon1165"
             style="fill:#66c9ba" />
          <polygon
             class="st131"
             points="32.97,141.9 81.24,172.02 127.88,142.91 79.61,112.78 "
             id="polygon1167"
             style="fill:#0069a7" />
          <polygon
             class="st126"
             points="29.62,85.74 29.62,139.81 32.97,141.9 79.61,112.78 32.97,83.67 "
             id="polygon1169"
             style="fill:#007da5" />
          <polygon
             class="st131"
             points="174.21,171.83 173.7,172.56 223.92,141.2 177.28,112.08 127.88,142.91 "
             id="polygon1171"
             style="fill:#0069a7" />
          <polygon
             class="st126"
             points="223.92,82.97 177.28,112.08 223.92,141.2 226.85,139.38 226.85,84.8 "
             id="polygon1173"
             style="fill:#007da5" />
          <polygon
             class="st132"
             points="81.24,172.02 127.88,201.14 173.7,172.56 174.21,171.83 127.88,142.91 "
             id="polygon1175"
             style="fill:#002f87" />
          <polygon
             class="st126"
             points="129,81.95 177.28,112.08 127.88,142.91 79.61,112.78 "
             id="polygon1177"
             style="display:inline;fill:#007da5" />
        </g>
        <g
           id="g1239"
           style="display:inline"
           inkscape:label="opennetworkautomationplatform">
          <g
             id="g1237"
             style="display:inline"
             inkscape:label="path">
            <path
               class="st128"
               d="m 299.9,209.2 c -0.01,1.57 -0.14,2.83 -0.39,3.8 -0.25,0.97 -0.64,1.72 -1.17,2.26 -0.54,0.54 -1.24,0.91 -2.1,1.11 -0.86,0.21 -1.97,0.31 -3.33,0.31 h -8.5 c -1.32,0 -2.44,-0.13 -3.35,-0.4 -0.91,-0.26 -1.65,-0.68 -2.21,-1.26 -0.56,-0.58 -0.97,-1.34 -1.24,-2.29 -0.27,-0.95 -0.41,-2.13 -0.42,-3.54 v -6.79 c 0.01,-1.43 0.15,-2.63 0.4,-3.6 0.25,-0.97 0.65,-1.77 1.2,-2.39 0.55,-0.62 1.28,-1.07 2.19,-1.36 0.91,-0.29 2.06,-0.44 3.43,-0.44 h 8.5 c 1.65,0 2.97,0.22 3.97,0.64 1,0.43 1.75,1.21 2.25,2.34 0.5,1.13 0.76,2.73 0.78,4.81 v 6.8 z m -2.02,-6.97 c -0.02,-1.47 -0.18,-2.59 -0.47,-3.35 -0.29,-0.76 -0.79,-1.3 -1.48,-1.6 -0.7,-0.3 -1.71,-0.46 -3.05,-0.46 h -8.5 c -1.25,0 -2.24,0.16 -2.97,0.48 -0.73,0.32 -1.27,0.87 -1.63,1.66 -0.36,0.79 -0.55,1.88 -0.58,3.27 v 6.97 c 0.01,1.05 0.11,1.92 0.3,2.6 0.19,0.68 0.49,1.22 0.89,1.61 0.41,0.39 0.93,0.67 1.57,0.83 0.64,0.16 1.44,0.24 2.41,0.24 h 8.5 c 1.4,0 2.44,-0.14 3.13,-0.43 0.69,-0.29 1.17,-0.8 1.44,-1.52 0.27,-0.73 0.41,-1.83 0.43,-3.32 v -6.98 z"
               id="path1179"
               style="fill:#24272a" />
            <path
               class="st128"
               d="m 302.98,216.65 v -21.79 h 13.09 c 1.63,0 2.93,0.22 3.93,0.67 0.99,0.44 1.72,1.16 2.19,2.15 0.47,0.99 0.7,2.3 0.7,3.92 0,1.62 -0.22,2.86 -0.67,3.74 -0.45,0.87 -1.16,1.48 -2.13,1.82 -0.97,0.34 -2.3,0.51 -3.99,0.51 H 305 v 8.99 h -2.02 z m 2.01,-11.19 h 11.69 c 1.1,0 1.94,-0.1 2.53,-0.3 0.59,-0.2 1.01,-0.57 1.27,-1.11 0.26,-0.54 0.39,-1.37 0.39,-2.46 0,-1.67 -0.3,-2.84 -0.92,-3.52 -0.61,-0.68 -1.64,-1.01 -3.08,-1.01 h -11.89 v 8.4 z"
               id="path1181"
               style="fill:#24272a" />
            <path
               class="st128"
               d="m 325.68,216.68 v -21.82 h 17.2 v 2.2 H 327.7 v 7.23 h 14.79 v 2.2 H 327.7 v 7.98 h 15.18 v 2.2 h -17.2 z"
               id="path1183"
               style="fill:#24272a" />
            <path
               class="st128"
               d="m 346.26,216.68 v -21.82 h 4.48 l 14.93,19.56 v -19.56 h 2.01 v 21.82 h -2.91 l -15.38,-20.12 h -1.12 v 20.12 z"
               id="path1185"
               style="fill:#24272a" />
            <path
               class="st128"
               d="m 379.76,216.68 v -21.82 h 4.48 l 14.93,19.56 v -19.56 h 2.01 v 21.82 h -2.91 l -15.38,-20.12 h -1.12 v 20.12 z"
               id="path1187"
               style="fill:#24272a" />
            <path
               class="st128"
               d="m 404.42,216.68 v -21.82 h 17.2 v 2.2 h -15.18 v 7.23 h 14.79 v 2.2 h -14.79 v 7.98 h 15.18 v 2.2 h -17.2 z"
               id="path1189"
               style="fill:#24272a" />
            <path
               class="st128"
               d="m 423.99,194.86 h 20.92 v 2.2 h -9.48 v 19.62 h -2.01 V 197.06 H 424 v -2.2 z"
               id="path1191"
               style="fill:#24272a" />
            <path
               class="st128"
               d="m 464.37,194.86 6.77,19.5 h 0.44 l 6.88,-19.5 h 2.24 l -7.94,21.82 h -2.85 l -6.71,-19.31 -6.66,19.31 h -2.85 l -7.94,-21.82 h 2.23 l 6.88,19.5 h 0.45 l 6.77,-19.5 z"
               id="path1193"
               style="fill:#24272a" />
            <path
               class="st128"
               d="m 505.47,209.2 c -0.01,1.57 -0.14,2.83 -0.39,3.8 -0.25,0.97 -0.64,1.72 -1.17,2.26 -0.54,0.54 -1.24,0.91 -2.1,1.11 -0.86,0.21 -1.97,0.31 -3.33,0.31 h -8.5 c -1.32,0 -2.44,-0.13 -3.35,-0.4 -0.91,-0.26 -1.65,-0.68 -2.21,-1.26 -0.56,-0.58 -0.97,-1.34 -1.24,-2.29 -0.27,-0.95 -0.41,-2.13 -0.42,-3.54 v -6.79 c 0.01,-1.43 0.15,-2.63 0.4,-3.6 0.25,-0.97 0.65,-1.77 1.2,-2.39 0.55,-0.62 1.28,-1.07 2.19,-1.36 0.91,-0.29 2.06,-0.44 3.43,-0.44 h 8.5 c 1.65,0 2.97,0.22 3.97,0.64 1,0.43 1.75,1.21 2.25,2.34 0.5,1.13 0.76,2.73 0.78,4.81 v 6.8 z m -2.01,-6.97 c -0.02,-1.47 -0.18,-2.59 -0.47,-3.35 -0.29,-0.76 -0.79,-1.3 -1.48,-1.6 -0.7,-0.3 -1.71,-0.46 -3.05,-0.46 h -8.5 c -1.25,0 -2.24,0.16 -2.97,0.48 -0.73,0.32 -1.27,0.87 -1.63,1.66 -0.36,0.79 -0.55,1.88 -0.58,3.27 v 6.97 c 0.01,1.05 0.11,1.92 0.3,2.6 0.19,0.68 0.49,1.22 0.89,1.61 0.41,0.39 0.93,0.67 1.57,0.83 0.64,0.16 1.44,0.24 2.41,0.24 h 8.5 c 1.4,0 2.44,-0.14 3.13,-0.43 0.69,-0.29 1.17,-0.8 1.44,-1.52 0.27,-0.73 0.41,-1.83 0.43,-3.32 v -6.98 z"
               id="path1195"
               style="fill:#24272a" />
            <path
               class="st128"
               d="m 510.62,207.72 v 8.99 h -2.01 v -21.82 h 13.98 c 1.58,0 2.87,0.26 3.88,0.79 1.01,0.52 1.74,1.26 2.2,2.19 0.46,0.94 0.69,2.03 0.69,3.28 0,1.03 -0.13,1.88 -0.38,2.54 -0.25,0.67 -0.57,1.19 -0.94,1.57 -0.37,0.38 -0.85,0.76 -1.42,1.14 0.69,0.17 1.26,0.69 1.73,1.57 0.47,0.87 0.7,2.08 0.7,3.62 v 5.1 h -2.01 v -5.34 c 0,-1.34 -0.24,-2.27 -0.72,-2.81 -0.48,-0.54 -1.26,-0.81 -2.32,-0.81 h -13.38 z m 0,-10.63 v 8.43 h 12.58 c 1.35,0 2.37,-0.37 3.08,-1.11 0.71,-0.74 1.06,-1.96 1.06,-3.68 0,-1.06 -0.36,-1.94 -1.09,-2.62 -0.72,-0.68 -1.69,-1.02 -2.91,-1.02 z"
               id="path1197"
               style="fill:#24272a" />
            <path
               class="st128"
               d="m 532.27,216.68 v -21.82 h 2.01 v 9.34 h 3.24 l 12.27,-9.37 h 3.52 l -13.7,10.44 14.04,11.42 h -3.52 L 537.6,206.41 h -3.32 v 10.28 h -2.01 z"
               id="path1199"
               style="fill:#24272a" />
            <path
               class="st128"
               d="m 565.34,216.68 h -2.23 l 10.07,-21.82 h 3.08 l 10.07,21.82 h -2.35 l -2.49,-5.47 h -13.65 z m 3.58,-7.67 h 11.52 l -5.76,-12.58 z"
               id="path1201"
               style="fill:#24272a" />
            <path
               class="st128"
               d="m 588.22,194.86 h 2.02 v 15.22 c 0,1.02 0.15,1.84 0.45,2.48 0.3,0.63 0.83,1.11 1.58,1.42 0.75,0.31 1.81,0.48 3.16,0.5 h 8.53 c 1.18,-0.02 2.13,-0.2 2.85,-0.54 0.72,-0.34 1.24,-0.84 1.56,-1.49 0.32,-0.66 0.49,-1.49 0.49,-2.5 v -15.09 h 2.01 v 14.28 c 0,2.01 -0.25,3.55 -0.75,4.64 -0.5,1.09 -1.24,1.84 -2.22,2.25 -0.98,0.41 -2.3,0.63 -3.97,0.66 h -8.5 c -1.72,-0.03 -3.09,-0.26 -4.13,-0.7 -1.04,-0.44 -1.81,-1.2 -2.32,-2.28 -0.51,-1.08 -0.77,-2.58 -0.77,-4.5 v -14.35 z"
               id="path1203"
               style="fill:#24272a" />
            <path
               class="st128"
               d="m 612.94,194.86 h 20.92 v 2.2 h -9.48 v 19.62 h -2.01 v -19.62 h -9.42 v -2.2 z"
               id="path1205"
               style="fill:#24272a" />
            <path
               class="st128"
               d="m 658.63,209.2 c -0.01,1.57 -0.14,2.83 -0.39,3.8 -0.25,0.97 -0.64,1.72 -1.17,2.26 -0.54,0.54 -1.24,0.91 -2.1,1.11 -0.86,0.21 -1.97,0.31 -3.33,0.31 h -8.5 c -1.32,0 -2.44,-0.13 -3.35,-0.4 -0.91,-0.26 -1.65,-0.68 -2.21,-1.26 -0.56,-0.58 -0.97,-1.34 -1.24,-2.29 -0.27,-0.95 -0.41,-2.13 -0.42,-3.54 v -6.79 c 0.01,-1.43 0.15,-2.63 0.4,-3.6 0.25,-0.97 0.65,-1.77 1.2,-2.39 0.55,-0.62 1.28,-1.07 2.19,-1.36 0.91,-0.29 2.06,-0.44 3.43,-0.44 h 8.5 c 1.65,0 2.97,0.22 3.97,0.64 1,0.43 1.75,1.21 2.25,2.34 0.5,1.13 0.76,2.73 0.78,4.81 v 6.8 z m -2.01,-6.97 c -0.02,-1.47 -0.18,-2.59 -0.47,-3.35 -0.29,-0.76 -0.79,-1.3 -1.48,-1.6 -0.7,-0.3 -1.71,-0.46 -3.05,-0.46 h -8.5 c -1.25,0 -2.24,0.16 -2.97,0.48 -0.73,0.32 -1.27,0.87 -1.63,1.66 -0.36,0.79 -0.55,1.88 -0.58,3.27 v 6.97 c 0.01,1.05 0.11,1.92 0.3,2.6 0.19,0.68 0.49,1.22 0.89,1.61 0.41,0.39 0.93,0.67 1.57,0.83 0.64,0.16 1.44,0.24 2.41,0.24 h 8.5 c 1.4,0 2.44,-0.14 3.13,-0.43 0.69,-0.29 1.17,-0.8 1.44,-1.52 0.27,-0.73 0.41,-1.83 0.43,-3.32 v -6.98 z"
               id="path1207"
               style="fill:#24272a" />
            <path
               class="st128"
               d="m 689.84,216.68 h -2.01 v -20.06 h -1.12 l -10.46,20.06 h -1.04 l -10.46,-20.06 h -1.15 v 20.06 h -2.01 v -21.82 h 4.3 l 9.84,18.62 9.79,-18.62 h 4.31 v 21.82 z"
               id="path1209"
               style="fill:#24272a" />
            <path
               class="st128"
               d="m 693.96,216.68 h -2.23 l 10.07,-21.82 h 3.08 l 10.07,21.82 h -2.35 l -2.49,-5.47 h -13.65 z m 3.59,-7.67 h 11.52 l -5.76,-12.58 z"
               id="path1211"
               style="fill:#24272a" />
            <path
               class="st128"
               d="m 715.78,194.86 h 20.92 v 2.2 h -9.48 v 19.62 h -2.01 v -19.62 h -9.42 v -2.2 z"
               id="path1213"
               style="fill:#24272a" />
            <path
               class="st128"
               d="m 742.18,216.68 h -2.01 v -21.82 h 2.01 z"
               id="path1215"
               style="fill:#24272a" />
            <path
               class="st128"
               d="m 769.36,209.2 c -0.01,1.57 -0.14,2.83 -0.39,3.8 -0.25,0.97 -0.64,1.72 -1.17,2.26 -0.54,0.54 -1.24,0.91 -2.1,1.11 -0.86,0.21 -1.97,0.31 -3.33,0.31 h -8.5 c -1.32,0 -2.44,-0.13 -3.35,-0.4 -0.91,-0.26 -1.65,-0.68 -2.21,-1.26 -0.56,-0.58 -0.97,-1.34 -1.24,-2.29 -0.27,-0.95 -0.41,-2.13 -0.42,-3.54 v -6.79 c 0.01,-1.43 0.15,-2.63 0.4,-3.6 0.25,-0.97 0.65,-1.77 1.2,-2.39 0.55,-0.62 1.28,-1.07 2.19,-1.36 0.91,-0.29 2.06,-0.44 3.43,-0.44 h 8.5 c 1.65,0 2.97,0.22 3.97,0.64 1,0.43 1.75,1.21 2.25,2.34 0.5,1.13 0.76,2.73 0.78,4.81 v 6.8 z m -2.02,-6.97 c -0.02,-1.47 -0.18,-2.59 -0.47,-3.35 -0.29,-0.76 -0.79,-1.3 -1.48,-1.6 -0.7,-0.3 -1.71,-0.46 -3.05,-0.46 h -8.5 c -1.25,0 -2.24,0.16 -2.97,0.48 -0.73,0.32 -1.27,0.87 -1.63,1.66 -0.36,0.79 -0.55,1.88 -0.58,3.27 v 6.97 c 0.01,1.05 0.11,1.92 0.3,2.6 0.19,0.68 0.49,1.22 0.89,1.61 0.41,0.39 0.93,0.67 1.57,0.83 0.64,0.16 1.44,0.24 2.41,0.24 h 8.5 c 1.4,0 2.44,-0.14 3.13,-0.43 0.69,-0.29 1.17,-0.8 1.44,-1.52 0.27,-0.73 0.41,-1.83 0.43,-3.32 v -6.98 z"
               id="path1217"
               style="fill:#24272a" />
            <path
               class="st128"
               d="m 772.32,216.68 v -21.82 h 4.48 l 14.93,19.56 v -19.56 h 2.01 v 21.82 h -2.91 l -15.38,-20.12 h -1.12 v 20.12 z"
               id="path1219"
               style="fill:#24272a" />
            <path
               class="st128"
               d="m 805.93,216.65 v -21.79 h 13.09 c 1.63,0 2.93,0.22 3.93,0.67 0.99,0.44 1.72,1.16 2.19,2.15 0.47,0.99 0.7,2.3 0.7,3.92 0,1.62 -0.22,2.86 -0.67,3.74 -0.45,0.87 -1.16,1.48 -2.13,1.82 -0.97,0.34 -2.3,0.51 -3.99,0.51 h -11.1 v 8.99 h -2.02 z m 2.02,-11.19 h 11.69 c 1.1,0 1.94,-0.1 2.53,-0.3 0.59,-0.2 1.01,-0.57 1.27,-1.11 0.26,-0.54 0.39,-1.37 0.39,-2.46 0,-1.67 -0.3,-2.84 -0.92,-3.52 -0.61,-0.68 -1.64,-1.01 -3.08,-1.01 h -11.89 v 8.4 z"
               id="path1221"
               style="fill:#24272a" />
            <path
               class="st128"
               d="m 828.86,216.68 v -21.82 h 2.01 v 19.62 h 14.63 v 2.2 z"
               id="path1223"
               style="fill:#24272a" />
            <path
               class="st128"
               d="m 849.43,216.68 h -2.23 l 10.07,-21.82 h 3.08 l 10.07,21.82 h -2.35 l -2.49,-5.47 h -13.65 z m 3.59,-7.67 h 11.52 l -5.76,-12.58 z"
               id="path1225"
               style="fill:#24272a" />
            <path
               class="st128"
               d="m 871.25,194.86 h 20.92 v 2.2 h -9.48 v 19.62 h -2.01 v -19.62 h -9.42 v -2.2 z"
               id="path1227"
               style="fill:#24272a" />
            <path
               class="st128"
               d="m 894.46,216.68 v -21.82 h 17.2 v 2.2 h -15.18 v 7.23 h 14.79 v 2.2 h -14.79 v 10.19 z"
               id="path1229"
               style="fill:#24272a" />
            <path
               class="st128"
               d="m 937.58,209.2 c -0.01,1.57 -0.14,2.83 -0.39,3.8 -0.25,0.97 -0.64,1.72 -1.17,2.26 -0.54,0.54 -1.24,0.91 -2.1,1.11 -0.86,0.21 -1.97,0.31 -3.33,0.31 h -8.5 c -1.32,0 -2.44,-0.13 -3.35,-0.4 -0.91,-0.26 -1.65,-0.68 -2.21,-1.26 -0.56,-0.58 -0.97,-1.34 -1.24,-2.29 -0.27,-0.95 -0.41,-2.13 -0.42,-3.54 v -6.79 c 0.01,-1.43 0.15,-2.63 0.4,-3.6 0.25,-0.97 0.65,-1.77 1.2,-2.39 0.55,-0.62 1.28,-1.07 2.19,-1.36 0.91,-0.29 2.06,-0.44 3.43,-0.44 h 8.5 c 1.65,0 2.97,0.22 3.97,0.64 1,0.43 1.75,1.21 2.25,2.34 0.5,1.13 0.76,2.73 0.78,4.81 v 6.8 z m -2.01,-6.97 c -0.02,-1.47 -0.18,-2.59 -0.47,-3.35 -0.29,-0.76 -0.79,-1.3 -1.48,-1.6 -0.7,-0.3 -1.71,-0.46 -3.05,-0.46 h -8.5 c -1.25,0 -2.24,0.16 -2.97,0.48 -0.73,0.32 -1.27,0.87 -1.63,1.66 -0.35,0.79 -0.55,1.88 -0.58,3.27 v 6.97 c 0.01,1.05 0.11,1.92 0.3,2.6 0.19,0.68 0.49,1.22 0.89,1.61 0.41,0.39 0.93,0.67 1.57,0.83 0.64,0.16 1.44,0.24 2.41,0.24 h 8.5 c 1.4,0 2.44,-0.14 3.13,-0.43 0.69,-0.29 1.17,-0.8 1.44,-1.52 0.27,-0.73 0.41,-1.83 0.43,-3.32 v -6.98 z"
               id="path1231"
               style="fill:#24272a" />
            <path
               class="st128"
               d="m 942.73,207.72 v 8.99 h -2.01 v -21.82 h 13.98 c 1.58,0 2.87,0.26 3.88,0.79 1.01,0.52 1.74,1.26 2.2,2.19 0.46,0.94 0.69,2.03 0.69,3.28 0,1.03 -0.13,1.88 -0.38,2.54 -0.25,0.67 -0.57,1.19 -0.94,1.57 -0.37,0.38 -0.85,0.76 -1.42,1.14 0.69,0.17 1.26,0.69 1.73,1.57 0.47,0.87 0.7,2.08 0.7,3.62 v 5.1 h -2.01 v -5.34 c 0,-1.34 -0.24,-2.27 -0.72,-2.81 -0.48,-0.54 -1.26,-0.81 -2.32,-0.81 h -13.38 z m 0,-10.63 v 8.43 h 12.58 c 1.35,0 2.37,-0.37 3.08,-1.11 0.71,-0.74 1.06,-1.96 1.06,-3.68 0,-1.06 -0.36,-1.94 -1.09,-2.62 -0.72,-0.68 -1.69,-1.02 -2.91,-1.02 z"
               id="path1233"
               style="fill:#24272a" />
            <path
               class="st128"
               d="m 992.84,216.68 h -2.01 v -20.06 h -1.12 l -10.46,20.06 h -1.04 l -10.46,-20.06 h -1.15 v 20.06 h -2.01 v -21.82 h 4.3 l 9.84,18.62 9.79,-18.62 h 4.31 v 21.82 z"
               id="path1235"
               style="fill:#24272a" />
          </g>
        </g>
      </g>
    </a>
  </g>
</svg>
