<?xml version="1.0" encoding="UTF-8" standalone="no"?>
<svg
   width="16"
   height="16"
   fill="currentColor"
   class="bi bi-filetype-tsx"
   viewBox="0 0 16 16"
   version="1.1"
   id="svg27"
   sodipodi:docname="filetype-rst.svg"
   inkscape:version="1.2.1 (8a69933317, 2022-10-28, custom)"
   xmlns:inkscape="http://www.inkscape.org/namespaces/inkscape"
   xmlns:sodipodi="http://sodipodi.sourceforge.net/DTD/sodipodi-0.dtd"
   xmlns="http://www.w3.org/2000/svg"
   xmlns:svg="http://www.w3.org/2000/svg">
  <defs
     id="defs31" />
  <sodipodi:namedview
     id="namedview29"
     pagecolor="#ffffff"
     bordercolor="#666666"
     borderopacity="1.0"
     inkscape:showpageshadow="2"
     inkscape:pageopacity="0.0"
     inkscape:pagecheckerboard="0"
     inkscape:deskcolor="#d1d1d1"
     showgrid="false"
     inkscape:zoom="59.15625"
     inkscape:cx="1.8679345"
     inkscape:cy="9.3058637"
     inkscape:window-width="1985"
     inkscape:window-height="1230"
     inkscape:window-x="1467"
     inkscape:window-y="509"
     inkscape:window-maximized="0"
     inkscape:current-layer="svg27" />
  <path
     fill-rule="evenodd"
     d="M 14,4.5 V 14 c 0,1.104569 -0.895431,2 -2,2 h -1 v -1 h 1 c 0.552285,0 1,-0.447715 1,-1 V 4.5 H 11 C 10.171573,4.5 9.5,3.8284271 9.5,3 V 1 H 4 C 3.4477153,1 3,1.4477153 3,2 v 9 H 2 V 2 C 2,0.8954305 2.8954305,0 4,0 H 9.5 Z M 3.172,14.841 c 0.011576,0.31862 0.157214,0.617522 0.401,0.823 0.129,0.108 0.288,0.192 0.478,0.252 0.189,0.061 0.41,0.091 0.665,0.091 0.338,0 0.624,-0.053 0.858,-0.158 0.236,-0.105 0.416,-0.252 0.54,-0.44 0.1261081,-0.195239 0.1574,-0.423613 0.1531912,-0.656 0,-0.224 -0.011191,-0.41 -0.1011912,-0.56 C 6.0744715,14.043172 5.9451453,13.920054 5.791,13.836 5.6138735,13.73814 5.4230915,13.667355 5.225,13.626 L 4.605,13.482 C 4.458264,13.455251 4.319673,13.395024 4.2,13.306 4.1074875,13.234656 4.0541039,13.123811 4.056,13.007 c 0,-0.156 0.062,-0.284 0.185,-0.384 0.125,-0.101 0.296,-0.152 0.513,-0.152 0.142,0 0.265,0.023 0.369,0.068 0.095727,0.03903 0.1802587,0.101221 0.246,0.181 0.061546,0.07423 0.1028803,0.163103 0.12,0.258 h 0.75 C 6.2265178,12.774354 6.157233,12.578278 6.039,12.412 5.9126116,12.232507 5.7397733,12.09078 5.539,12.002 5.29344,11.894274 5.0270414,11.842361 4.759,11.85 4.467,11.85 4.208,11.9 3.983,12 c -0.224,0.099 -0.4,0.24 -0.527,0.421 -0.127,0.182 -0.19,0.395 -0.19,0.639 0,0.201 0.04,0.376 0.122,0.524 0.083,0.149 0.2,0.27 0.352,0.367 0.152,0.095 0.332,0.167 0.54,0.213 l 0.617,0.144 c 0.207,0.049 0.362,0.113 0.463,0.193 0.1011562,0.07709 0.157979,0.198959 0.152,0.326 0.00185,0.102921 -0.02743,0.204 -0.084,0.29 C 5.363609,15.20479 5.2749814,15.271872 5.173,15.31 5.0412899,15.36032 4.900934,15.3841 4.76,15.38 4.642,15.38 4.536,15.367 4.44,15.34 4.351241,15.31562 4.267112,15.27676 4.191,15.225 4.0564291,15.1379 3.9640741,14.998822 3.936,14.841 Z m 5.0824659,1.09 v -3.337 h 1.136 v -0.662 h -3.064 v 0.662 h 1.134 v 3.337 z"
     id="path25"
     sodipodi:nodetypes="cssccsscsscssccsscccccsccccccccccscccccccccscccccccccccccccccccccc" />
  <path
     d="M 0.01720333,11.929713 H 1.6142033 c 0.297,0 0.55,0.053 0.758,0.158 0.21,0.104 0.369,0.25 0.478,0.44 0.111,0.19 0.167,0.412 0.167,0.668 0.013348,0.48845 -0.2757336,0.934597 -0.727,1.122 l 0.803,1.611 h -0.885 l -0.7,-1.491 H 0.79920333 v 1.491 h -0.782 z m 0.782,0.621 v 1.292 H 1.4882033 c 0.218,0 0.391,-0.053 0.518,-0.158 0.13,-0.106 0.194,-0.264 0.194,-0.475 0,-0.213 -0.065,-0.376 -0.194,-0.489 -0.1419019,-0.117882 -0.3227179,-0.178511 -0.507,-0.17 z"
     style="fill-rule:evenodd"
     id="path352"
     sodipodi:nodetypes="cscccccccccccccscsccc" />
</svg>
