<?xml version="1.0" encoding="utf-8"?>
<!-- Generator: Adobe Illustrator 27.0.1, SVG Export Plug-In . SVG Version: 6.00 Build 0)  -->
<svg version="1.1" id="Ebene_1" xmlns="http://www.w3.org/2000/svg" xmlns:xlink="http://www.w3.org/1999/xlink" x="0px" y="0px"
	 viewBox="0 0 16 16" style="enable-background:new 0 0 16 16;" xml:space="preserve">
<style type="text/css">
	.st0{fill-rule:evenodd;clip-rule:evenodd;}
</style>
<path class="st0" d="M14,4.5V14c0,1.1-0.9,2-2,2h-1v-1h1c0.6,0,1-0.4,1-1V4.5h-2c-0.8,0-1.5-0.7-1.5-1.5V1H4C3.4,1,3,1.4,3,2v9H2V2
	c0-1.1,0.9-2,2-2h5.5L14,4.5z M3.2,14.8c0,0.3,0.2,0.6,0.4,0.8c0.1,0.1,0.3,0.2,0.5,0.3C4.2,16,4.5,16,4.7,16c0.3,0,0.6-0.1,0.9-0.2
	c0.2-0.1,0.4-0.3,0.5-0.4c0.1-0.2,0.2-0.4,0.2-0.7c0-0.2,0-0.4-0.1-0.6c-0.1-0.1-0.2-0.3-0.4-0.4c-0.2-0.1-0.4-0.2-0.6-0.2l-0.6-0.1
	c-0.1,0-0.3-0.1-0.4-0.2c-0.1-0.1-0.1-0.2-0.1-0.3c0-0.2,0.1-0.3,0.2-0.4c0.1-0.1,0.3-0.2,0.5-0.2c0.1,0,0.3,0,0.4,0.1
	c0.1,0,0.2,0.1,0.2,0.2c0.1,0.1,0.1,0.2,0.1,0.3h0.8c0-0.2-0.1-0.4-0.2-0.6c-0.1-0.2-0.3-0.3-0.5-0.4c-0.2-0.1-0.5-0.2-0.8-0.2
	c-0.3,0-0.6,0.1-0.8,0.1c-0.2,0.1-0.4,0.2-0.5,0.4c-0.1,0.2-0.2,0.4-0.2,0.6c0,0.2,0,0.4,0.1,0.5c0.1,0.1,0.2,0.3,0.4,0.4
	c0.2,0.1,0.3,0.2,0.5,0.2l0.6,0.1c0.2,0,0.4,0.1,0.5,0.2c0.1,0.1,0.2,0.2,0.2,0.3c0,0.1,0,0.2-0.1,0.3c-0.1,0.1-0.2,0.2-0.3,0.2
	c-0.1,0.1-0.3,0.1-0.4,0.1c-0.1,0-0.2,0-0.3,0c-0.1,0-0.2-0.1-0.2-0.1C4.1,15.1,4,15,3.9,14.8C3.9,14.8,3.2,14.8,3.2,14.8z
	 M8.3,15.9v-3.3h1.1v-0.7H6.4v0.7h1.1v3.3H8.3z M0,11.9h1.6c0.3,0,0.6,0.1,0.8,0.2c0.2,0.1,0.4,0.2,0.5,0.4C2.9,12.7,3,12.9,3,13.2
	c0,0.5-0.3,0.9-0.7,1.1l0.8,1.6H2.2l-0.7-1.5H0.8v1.5H0V11.9z M0.8,12.5v1.3h0.7c0.2,0,0.4-0.1,0.5-0.2c0.1-0.1,0.2-0.3,0.2-0.5
	c0-0.2-0.1-0.4-0.2-0.5c-0.1-0.1-0.3-0.2-0.5-0.2C1.5,12.5,0.8,12.5,0.8,12.5z"/>
</svg>
