<?xml version="1.0" encoding="utf-8"?>
<!-- Generator: Adobe Illustrator 27.0.1, SVG Export Plug-In . SVG Version: 6.00 Build 0)  -->
<svg version="1.0" id="Ebene_1" xmlns="http://www.w3.org/2000/svg" xmlns:xlink="http://www.w3.org/1999/xlink" x="0px" y="0px"
	 width="16px" height="16px" viewBox="0 0 16 16" enable-background="new 0 0 16 16" xml:space="preserve">
<path fill-rule="evenodd" clip-rule="evenodd" d="M14,4.4999852v9.5c0,1.1045694-0.8954306,2-2,2h-1v-1h1
	c0.5522852,0,1-0.4477148,1-1v-9.5h-2c-0.8284273,0-1.5-0.6715727-1.5-1.4999998v-2H4c-0.5522847,0-1,0.4477153-1,1v9H2v-9
	c0-1.1045694,0.8954306-2,2-2h5.5L14,4.4999852z M3.1719999,14.8409853c0.0115762,0.3186197,0.1572139,0.6175222,0.401,0.823
	c0.1289999,0.1079998,0.2880001,0.1920004,0.4780002,0.2519999c0.1890001,0.0609999,0.4099998,0.0909996,0.665,0.0909996
	c0.3379998,0,0.6240001-0.0529995,0.8579998-0.157999c0.2360001-0.1049995,0.4159999-0.2519999,0.54-0.4399996
	c0.1261082-0.1952391,0.1912088-0.4236135,0.1869998-0.6560001c0-0.224-0.0450001-0.4099998-0.1350002-0.5600004
	c-0.0915284-0.149828-0.2208548-0.2729464-0.375-0.3570004c-0.1771264-0.0978603-0.3679085-0.1686449-0.566-0.21
	l-0.6199999-0.1440001c-0.1467361-0.0267487-0.285327-0.0869751-0.4050002-0.1759996
	c-0.0925126-0.0713434-0.145896-0.182189-0.1440001-0.2989998c0-0.1560001,0.0619998-0.2840004,0.1849999-0.3839998
	c0.125-0.1009998,0.296-0.1520004,0.513-0.1520004c0.1420002,0,0.2649999,0.0229998,0.369,0.0679998
	c0.095727,0.0390253,0.1802588,0.1012211,0.2459998,0.1809998c0.0615458,0.074234,0.1028805,0.1631031,0.1199999,0.2580004h0.75
	c-0.0124822-0.2036457-0.0817671-0.3997221-0.1999998-0.566c-0.1263885-0.179493-0.2992268-0.3212204-0.5-0.4099998
	c-0.2455602-0.1077261-0.5119586-0.1596394-0.7800002-0.1520004c-0.2919998,0-0.5510001,0.0500002-0.776,0.1499996
	c-0.224,0.099-0.4000001,0.2399998-0.527,0.4210005c-0.1270001,0.1820002-0.1900001,0.3950005-0.1900001,0.6389999
	c0,0.2010002,0.04,0.3760004,0.122,0.5240002c0.0829999,0.1490002,0.2,0.2700005,0.352,0.3669996
	c0.152,0.0950003,0.3319998,0.1669998,0.54,0.2130003l0.6170001,0.1440001c0.2069998,0.0489998,0.362,0.1129999,0.4629998,0.1929998
	c0.1011562,0.0770884,0.157979,0.1989584,0.152,0.3260002c0.0018482,0.1029205-0.0274301,0.2040005-0.0840001,0.29
	c-0.0643911,0.0877934-0.1530185,0.1548719-0.2550001,0.1929998c-0.1317101,0.0503159-0.2720661,0.0741053-0.4130001,0.0699997
	c-0.118,0-0.224-0.0129995-0.3200002-0.04c-0.0887589-0.0243807-0.1728883-0.0632362-0.2490001-0.1149998
	c-0.1345711-0.0871019-0.2269258-0.2261772-0.2550001-0.3839998C3.935998,14.8409853,3.171998,14.8409853,3.1719999,14.8409853z
	 M8.2982101,15.9276171v-3.3369999h1.1359997v-0.6619997H6.3702102v0.6619997H7.50421v3.3369999H8.2982101z M0,11.9286175h1.597
	c0.2970001,0,0.5500001,0.0530005,0.758,0.158c0.21,0.1040001,0.369,0.25,0.4779999,0.4399996
	C2.944,12.7166166,3,12.9386168,3,13.1946173c0.0133479,0.4884491-0.2757337,0.934597-0.727,1.1219997l0.803,1.6110001H2.191
	l-0.7-1.4910002H0.782v1.4910002H0V11.9286175z M0.782,12.5496178v1.2919998h0.689c0.2179999,0,0.391-0.0530005,0.518-0.158
	c0.13-0.1059999,0.1940001-0.2639999,0.1940001-0.4750004c0-0.2130003-0.0650001-0.3760004-0.194-0.4890003
	c-0.1419019-0.1178818-0.3227178-0.1785107-0.507-0.1700001C1.4820001,12.5496168,0.7820001,12.5496168,0.782,12.5496178z"/>
</svg>
